<?xml version="1.0" encoding="utf-8"?>
<!-- Generator: Adobe Illustrator 25.2.1, SVG Export Plug-In . SVG Version: 6.00 Build 0)  -->
<svg version="1.1" id="Layer_1" xmlns="http://www.w3.org/2000/svg" xmlns:xlink="http://www.w3.org/1999/xlink" x="0px" y="0px"
	 viewBox="0 0 41.4 45.4" style="enable-background:new 0 0 41.4 45.4;" xml:space="preserve">
<style type="text/css">
	.st0{fill:url(#SVGID_3_);}
	.st1{fill:url(#SVGID_4_);}
	.st2{fill:none;stroke:#AFAFAF;stroke-miterlimit:10;}
	.st3{fill:#FFFFFF;stroke:#CE9124;stroke-width:2;stroke-linecap:round;stroke-linejoin:round;stroke-miterlimit:10;}
	.st4{fill:#CE9124;}
	.st5{fill:#CE9124;stroke:#FFFFFF;stroke-width:2;stroke-linecap:round;stroke-linejoin:round;stroke-miterlimit:10;}
	.st6{fill:none;stroke:#FFFFFF;stroke-width:2;stroke-linecap:round;stroke-linejoin:round;stroke-miterlimit:10;}
	.st7{fill:#CE9124;stroke:#FFFFFF;stroke-width:2;stroke-miterlimit:10;}
	.st8{fill:none;stroke:#FFFFFF;stroke-width:1.8068;stroke-linecap:round;stroke-linejoin:round;stroke-miterlimit:10;}
	.st9{fill:#EDB030;}
	.st10{fill:#EDB030;stroke:#FFFFFF;stroke-width:2;stroke-miterlimit:10;}
	.st11{fill:#FFFFFF;stroke:#EDB030;stroke-width:3;stroke-miterlimit:10;}
	.st12{fill:none;stroke:#CE9124;stroke-width:2;stroke-miterlimit:10;}
	.st13{fill:none;stroke:#CE9124;stroke-width:1.8;stroke-miterlimit:10;}
	.st14{fill:none;stroke:#CE9124;stroke-width:1.8;stroke-linecap:round;stroke-linejoin:round;stroke-miterlimit:10;}
	.st15{fill:none;stroke:#CE9124;stroke-width:2;stroke-linecap:round;stroke-linejoin:round;stroke-miterlimit:10;}
	.st16{fill:#CE9124;stroke:#CE9124;stroke-width:2;stroke-linecap:round;stroke-linejoin:round;stroke-miterlimit:10;}
	.st17{fill:#FFFFFF;stroke:#CE9124;stroke-width:2;stroke-miterlimit:10;}
	.st18{clip-path:url(#SVGID_10_);fill:#EAE9E4;}
	.st19{fill:url(#SVGID_11_);}
	.st20{fill:url(#SVGID_12_);}
	.st21{fill:url(#SVGID_13_);}
	.st22{fill:#FFFFFF;}
	.st23{clip-path:url(#SVGID_19_);fill:#E1D6C2;}
	.st24{clip-path:url(#SVGID_21_);}
	.st25{opacity:0.3;}
	.st26{clip-path:url(#SVGID_39_);}
	.st27{fill:#FFFFFF;stroke:#CE9124;stroke-width:2.1207;stroke-miterlimit:10;}
	.st28{fill:none;stroke:#000000;stroke-miterlimit:10;}
</style>
<g>
	<circle class="st9" cx="20.7" cy="20.7" r="20.7"/>
	<path d="M16.7,40.5c-0.2,0.5-1,0.4-0.9-0.3c-0.8-3.3-1.7-14-1.6-17.7c0.2-6,0.5-11.6,0.9-16.8c0.2-0.2,0.6-0.2,0.8,0
		c-0.2,6.8-0.2,12,0,17.5C15.7,28.8,16.1,36.8,16.7,40.5z M38.3,16.2c-1.2,1.2-1.9,1.9-2.4,2.2c-1.4,1.1-2.6,1.7-3.6,1.9
		c-1.1-0.1-0.4-0.8,0.6-1c0.6-0.3,1.4-0.7,2.3-1.4c3.8-2.8,7.5-8.4,1.8-11.1c0,0.7-0.1,1.1-0.4,1.1c-0.3-0.1-0.4-0.2-0.4-0.4
		c0.1-0.4,0.1-0.7,0-1c-0.2-0.1-0.5-0.2-0.8-0.3c-4.2-1-7.7,0.4-11.3,3.7c-1.2,1.2-1.9,2.2-2.4,2.9C16.1,22.1,22.5,25,29.2,30
		c0.5,0.4,1,0.9,1.6,1.5c2.4-1.4,4.6-1.9,6.6-1.5c0.4,0.3,0.4,0.6-0.1,0.8c-1.8-0.2-3.8,0.3-6,1.5c2.4,3.7,0.8,6.5-2.7,10
		c-0.8,0.7-1.6,1.2-2.2,1.6c-3.2,1.8-7.7,2.9-8.5-1.2c0-2.1,2.6-4.8,7.7-7.9c0.9-0.6,2.2-1.4,3.8-2.3v0c-2.2-2.1-5.3-3.8-7.4-5.7
		c-1.2-1.1-1.8-1.8-2-2.1c-3.5-4.5-1.9-9.7,1.8-14.3c1.5-1.7,3.4-3.3,5-4c2.9-1.5,5.7-2,8.7-1.2c-3.7-3.3-11.5-2.1-17.4-1.7
		C11.8,4,9.9,4.5,3.3,5.8C2,5.9,0.5,6.3,0,5c0-0.2,0-0.4,0-0.6c0.1-0.7,0.2-1,0.5-1c0.2,0.1,0.4,0.2,0.4,0.4C0.7,4.5,0.5,5,1.5,5
		c0.7,0,3-0.5,6.7-1.4C12.6,2.5,19.7,1.2,25,1.4c5.2,0,8.8,0.8,10.7,2.5c0.5,0.5,0.8,1,1,1.6c0.5,0.2,1,0.5,1.5,0.8
		C42.2,9,41.3,12.6,38.3,16.2z M30,33c-2.6,1.5-5,3.1-7.3,4.8c-2.7,2.3-4.9,4.3-2.7,6c2.7,1,6.2-1.1,8.6-3.5
		c1.6-1.7,2.4-3.3,2.4-4.8C31,34.7,30.7,33.9,30,33z"/>
</g>
<g>
	<defs>
		<rect id="SVGID_9_" x="-98.7" y="64.6" width="1441" height="365.7"/>
	</defs>
	<clipPath id="SVGID_2_">
		<use xlink:href="#SVGID_9_"  style="overflow:visible;"/>
	</clipPath>
	<rect x="-136.8" y="34.7" style="clip-path:url(#SVGID_2_);fill:#EAE9E4;" width="1509.5" height="431"/>
</g>
</svg>
