<?xml version="1.0" encoding="utf-8"?>
<!-- Generator: Adobe Illustrator 25.2.1, SVG Export Plug-In . SVG Version: 6.00 Build 0)  -->
<svg version="1.1" xmlns="http://www.w3.org/2000/svg" xmlns:xlink="http://www.w3.org/1999/xlink" x="0px" y="0px"
	 viewBox="0 0 48.3 39.4" style="enable-background:new 0 0 48.3 39.4;" xml:space="preserve">
<style type="text/css">
	.st0{display:none;}
	.st1{display:inline;fill:none;stroke:#CE9124;stroke-width:2;stroke-miterlimit:10;}
	.st2{display:inline;fill:none;stroke:#CE9124;stroke-width:1.8;stroke-miterlimit:10;}
	.st3{display:inline;}
	.st4{fill:none;stroke:#CE9124;stroke-width:2;stroke-miterlimit:10;}
	.st5{fill:none;stroke:#CE9124;stroke-width:1.8;stroke-linecap:round;stroke-linejoin:round;stroke-miterlimit:10;}
	.st6{display:inline;fill:none;stroke:#CE9124;stroke-width:2;stroke-linecap:round;stroke-linejoin:round;stroke-miterlimit:10;}
	.st7{fill:none;stroke:#CE9124;stroke-width:2;stroke-linecap:round;stroke-linejoin:round;stroke-miterlimit:10;}
	.st8{fill:#FFFFFF;stroke:#CE9124;stroke-width:2;stroke-linecap:round;stroke-linejoin:round;stroke-miterlimit:10;}
	.st9{fill:#CE9124;}
	.st10{fill:#CE9124;stroke:#CE9124;stroke-width:2;stroke-linecap:round;stroke-linejoin:round;stroke-miterlimit:10;}
	.st11{fill:#FFFFFF;stroke:#CE9124;stroke-width:2;stroke-miterlimit:10;}
</style>
<g id="Layer_1" class="st0">
	<g class="st3">
		<path class="st8" d="M32.8,1L1,19l5.4,9.6l0.1,0.1l5.4,9.6l31.8-18l3.5-12.9c0.2-0.9-0.6-2.4-1.5-2.7L32.8,1z"/>
		<g>
			<g>
				<path class="st9" d="M14.1,25.9c-0.5,0.3-1,0.4-1.5,0.4c-0.5,0-1-0.2-1.4-0.6c-0.4-0.3-0.8-0.8-1.2-1.5
					c-0.5-0.9-0.7-1.8-0.6-2.6c0.1-0.8,0.6-1.4,1.3-1.8c0.5-0.3,1-0.4,1.5-0.4c0.5,0,1,0.2,1.4,0.6s0.9,0.8,1.2,1.5
					c0.4,0.6,0.6,1.2,0.6,1.8c0.1,0.6,0,1.1-0.2,1.5C15,25.3,14.6,25.6,14.1,25.9z M13.5,24.9c0.4-0.2,0.6-0.6,0.6-1
					c0-0.5-0.1-1-0.5-1.7c-0.4-0.7-0.8-1.1-1.2-1.3c-0.4-0.2-0.8-0.2-1.2,0c-0.4,0.2-0.6,0.6-0.6,1c0,0.5,0.1,1,0.5,1.7
					c0.4,0.7,0.8,1.1,1.2,1.4C12.7,25.1,13.1,25.1,13.5,24.9z M17.6,29.7l-1.3,0l0.1-13.3l1.3,0L17.6,29.7z M23.3,26.1
					c-0.5,0.3-1,0.4-1.5,0.4c-0.5,0-1-0.2-1.4-0.6c-0.4-0.3-0.9-0.8-1.2-1.5c-0.5-0.9-0.7-1.8-0.6-2.6c0.1-0.8,0.6-1.4,1.3-1.8
					c0.5-0.3,1-0.4,1.5-0.4c0.5,0,1,0.2,1.4,0.6c0.4,0.3,0.8,0.8,1.2,1.5c0.4,0.6,0.6,1.2,0.6,1.8c0.1,0.6,0,1.1-0.2,1.5
					C24.2,25.5,23.8,25.9,23.3,26.1z M22.7,25.2c0.4-0.2,0.6-0.6,0.6-1c0-0.5-0.2-1-0.5-1.7c-0.4-0.7-0.8-1.1-1.2-1.3
					c-0.4-0.2-0.8-0.2-1.2,0c-0.4,0.2-0.6,0.6-0.6,1c0,0.5,0.1,1,0.5,1.7c0.4,0.7,0.8,1.1,1.2,1.4C21.9,25.4,22.3,25.4,22.7,25.2z"
					/>
			</g>
		</g>
	</g>
</g>
<g id="Layer_2">
	<path class="st9" d="M46.1,3.8c0,0-12.9-3.8-12.9-3.8c-0.3-0.1-0.5,0-0.8,0.1l-31.8,18C0,18.3-0.1,19,0.1,19.5
		c0,0,10.9,19.4,10.9,19.4c0.3,0.5,0.9,0.7,1.4,0.4c0,0,31.8-18,31.8-18c0.2-0.1,0.4-0.4,0.5-0.6l3.5-12.9
		C48.6,6.3,47.5,4.3,46.1,3.8z M46.3,7.2l-3.4,12.5L12.3,37l-10-17.7L33,2.1l12.5,3.7C45.9,5.9,46.4,6.8,46.3,7.2z M15,21.4
		c-2.2-4.4-7.9-1.2-5.3,3C12,28.8,17.7,25.6,15,21.4z M13.4,24.7c-1.4,0.9-3.5-2.9-2-3.6C12.7,20.2,14.9,24,13.4,24.7z M16.2,16.1
		l1.8,0l-0.1,13.8l-1.8,0L16.2,16.1z M24.2,21.6c-0.4-0.7-0.8-1.2-1.3-1.5l0,0c-1.6-1.4-4.4-0.2-4.7,1.8c-0.3,1.3,0.8,3.4,1.9,4.3
		c1.4,1.2,3.6,0.5,4.4-1C25.2,24,24.9,22.8,24.2,21.6z M22.6,24.9c-1.4,0.9-3.5-2.9-2.1-3.6C21.9,20.4,24,24.2,22.6,24.9z"/>
</g>
</svg>
