<?xml version="1.0" encoding="utf-8"?>
<!-- Generator: Adobe Illustrator 25.2.1, SVG Export Plug-In . SVG Version: 6.00 Build 0)  -->
<svg version="1.1" xmlns="http://www.w3.org/2000/svg" xmlns:xlink="http://www.w3.org/1999/xlink" x="0px" y="0px"
	 viewBox="0 0 53.6 34.8" style="enable-background:new 0 0 53.6 34.8;" xml:space="preserve">
<style type="text/css">
	.st0{display:none;}
	.st1{display:inline;fill:none;stroke:#CE9124;stroke-width:2;stroke-miterlimit:10;}
	.st2{display:inline;fill:none;stroke:#CE9124;stroke-width:1.8;stroke-miterlimit:10;}
	.st3{display:inline;}
	.st4{fill:none;stroke:#CE9124;stroke-width:2;stroke-miterlimit:10;}
	.st5{fill:none;stroke:#CE9124;stroke-width:1.8;stroke-linecap:round;stroke-linejoin:round;stroke-miterlimit:10;}
	.st6{display:inline;fill:none;stroke:#CE9124;stroke-width:2;stroke-linecap:round;stroke-linejoin:round;stroke-miterlimit:10;}
	.st7{fill:none;stroke:#CE9124;stroke-width:2;stroke-linecap:round;stroke-linejoin:round;stroke-miterlimit:10;}
	.st8{fill:#FFFFFF;stroke:#CE9124;stroke-width:2;stroke-linecap:round;stroke-linejoin:round;stroke-miterlimit:10;}
	.st9{fill:#CE9124;}
	.st10{fill:#CE9124;stroke:#CE9124;stroke-width:2;stroke-linecap:round;stroke-linejoin:round;stroke-miterlimit:10;}
	.st11{fill:#FFFFFF;stroke:#CE9124;stroke-width:2;stroke-miterlimit:10;}
</style>
<g id="Layer_1" class="st0">
	<g class="st3">
		<path class="st7" d="M50.8,33.8h-48C1.8,33.8,1,33,1,32V2.8C1,1.8,1.8,1,2.8,1h48c1,0,1.8,0.8,1.8,1.8V32
			C52.6,33,51.8,33.8,50.8,33.8z"/>
		<rect x="1" y="6.1" class="st10" width="51.6" height="5.7"/>
		<rect x="36.9" y="26.6" class="st10" width="4.6" height="2.9"/>
		<rect x="45" y="26.6" class="st10" width="2.3" height="2.9"/>
	</g>
</g>
<g id="Layer_2">
	<path class="st9" d="M50.8,0h-48C1.3,0,0,1.3,0,2.8c0,2,0,6.9,0,8.9C0,11.7,0,32,0,32c0,1.6,1.3,2.8,2.8,2.8h48
		c1.6,0,2.8-1.3,2.8-2.8c0-4.2,0-22.1,0-25.9c0,0,0-3.3,0-3.3C53.6,1.3,52.4,0,50.8,0z M51.6,32c0,0.5-0.4,0.8-0.8,0.8h-48
		C2.4,32.8,2,32.4,2,32V12.7h49.6V32z M51.6,10.7H2V7.1h49.6V10.7z M51.6,5.1H2V2.8C2,2.4,2.4,2,2.8,2h48c0.5,0,0.8,0.4,0.8,0.8V5.1
		z M48.1,29.5h-4.9c0-0.5,0-1.5,0-2h4.9v1V29.5z M40.5,29.5h-4.9c0-0.5,0-1.5,0-2h4.9v1V29.5z"/>
</g>
</svg>
