<?xml version="1.0" encoding="utf-8"?>
<!-- Generator: Adobe Illustrator 25.2.1, SVG Export Plug-In . SVG Version: 6.00 Build 0)  -->
<svg version="1.1" xmlns="http://www.w3.org/2000/svg" xmlns:xlink="http://www.w3.org/1999/xlink" x="0px" y="0px"
	 viewBox="0 0 43 42.9" style="enable-background:new 0 0 43 42.9;" xml:space="preserve">
<style type="text/css">
	.st0{display:none;}
	.st1{display:inline;fill:none;stroke:#CE9124;stroke-width:2;stroke-miterlimit:10;}
	.st2{display:inline;fill:none;stroke:#CE9124;stroke-width:1.8;stroke-miterlimit:10;}
	.st3{display:inline;}
	.st4{fill:none;stroke:#CE9124;stroke-width:2;stroke-miterlimit:10;}
	.st5{fill:none;stroke:#CE9124;stroke-width:1.8;stroke-linecap:round;stroke-linejoin:round;stroke-miterlimit:10;}
	.st6{display:inline;fill:none;stroke:#CE9124;stroke-width:2;stroke-linecap:round;stroke-linejoin:round;stroke-miterlimit:10;}
	.st7{fill:none;stroke:#CE9124;stroke-width:2;stroke-linecap:round;stroke-linejoin:round;stroke-miterlimit:10;}
	.st8{fill:#FFFFFF;stroke:#CE9124;stroke-width:2;stroke-linecap:round;stroke-linejoin:round;stroke-miterlimit:10;}
	.st9{fill:#CE9124;}
	.st10{fill:#CE9124;stroke:#CE9124;stroke-width:2;stroke-linecap:round;stroke-linejoin:round;stroke-miterlimit:10;}
	.st11{fill:#FFFFFF;stroke:#CE9124;stroke-width:2;stroke-miterlimit:10;}
</style>
<g id="Layer_1" class="st0">
	<g class="st3">
		<g>
			<g>
				<path class="st9" d="M8.1,30.8v-2l6.1-6.5c0.6-0.6,1-1.2,1.4-1.7c0.3-0.5,0.6-1,0.8-1.5c0.2-0.5,0.2-1,0.2-1.5
					c0-1-0.3-1.7-0.9-2.2c-0.6-0.5-1.4-0.7-2.6-0.7c-0.9,0-1.7,0.2-2.5,0.5s-1.5,0.8-2.2,1.5l-1-2c0.7-0.7,1.6-1.2,2.6-1.6
					c1.1-0.4,2.2-0.6,3.3-0.6c1.3,0,2.3,0.2,3.2,0.6s1.5,1,2,1.7c0.4,0.7,0.7,1.6,0.7,2.7c0,0.6-0.1,1.1-0.2,1.6
					c-0.1,0.5-0.3,1-0.6,1.6c-0.3,0.5-0.6,1.1-1,1.6c-0.4,0.6-0.9,1.1-1.5,1.7l-5.2,5.5v-0.7h9.2v2.2H8.1z"/>
				<path class="st9" d="M30.8,30.8v-3.7h-8.2v-2l8.7-12.5h2.2v12.3h2.7v2.2h-2.7v3.7H30.8z M30.8,24.8v-9.1h0.7l-6.7,9.8v-0.7H30.8
					z"/>
			</g>
		</g>
		<circle class="st7" cx="21.5" cy="21.5" r="20.5"/>
	</g>
</g>
<g id="Layer_2">
	<path class="st9" d="M11.5,28.5h8.5v2.2H8.1v-2c0,0,6.1-6.5,6.1-6.5c1-1.1,1.7-2,2.1-3.2c1.7-5.4-5.2-5.4-7.9-2.4l-1-2
		c2.2-2.2,6.4-2.8,9.2-1.6c4.6,2.2,2.5,8.2-0.6,10.9L11.5,28.5z M36.1,24.8v2.2h-2.7v3.7h-2.7v-3.7h-8.2v-2l8.7-12.5h2.2v12.3H36.1z
		 M30.8,16.8l-5.5,8h5.5V16.8z M43,21.5C41.8,50,1.2,50,0,21.5C0,9.6,9.6,0,21.5,0S43,9.6,43,21.5z M41,21.5
		C39.9-4.4,3.1-4.4,2,21.5C2,32.2,10.7,41,21.5,41S41,32.2,41,21.5z"/>
</g>
</svg>
