<?xml version="1.0" encoding="utf-8"?>
<!-- Generator: Adobe Illustrator 25.2.1, SVG Export Plug-In . SVG Version: 6.00 Build 0)  -->
<svg version="1.1" xmlns="http://www.w3.org/2000/svg" xmlns:xlink="http://www.w3.org/1999/xlink" x="0px" y="0px"
	 viewBox="0 0 40.5 41.2" style="enable-background:new 0 0 40.5 41.2;" xml:space="preserve">
<style type="text/css">
	.st0{display:none;}
	.st1{display:inline;fill:none;stroke:#CE9124;stroke-width:2;stroke-miterlimit:10;}
	.st2{display:inline;fill:none;stroke:#CE9124;stroke-width:1.8;stroke-miterlimit:10;}
	.st3{display:inline;}
	.st4{fill:none;stroke:#CE9124;stroke-width:2;stroke-miterlimit:10;}
	.st5{fill:none;stroke:#CE9124;stroke-width:1.8;stroke-linecap:round;stroke-linejoin:round;stroke-miterlimit:10;}
	.st6{display:inline;fill:none;stroke:#CE9124;stroke-width:2;stroke-linecap:round;stroke-linejoin:round;stroke-miterlimit:10;}
	.st7{fill:none;stroke:#CE9124;stroke-width:2;stroke-linecap:round;stroke-linejoin:round;stroke-miterlimit:10;}
	.st8{fill:#FFFFFF;stroke:#CE9124;stroke-width:2;stroke-linecap:round;stroke-linejoin:round;stroke-miterlimit:10;}
	.st9{fill:#CE9124;}
	.st10{fill:#CE9124;stroke:#CE9124;stroke-width:2;stroke-linecap:round;stroke-linejoin:round;stroke-miterlimit:10;}
	.st11{fill:#FFFFFF;stroke:#CE9124;stroke-width:2;stroke-miterlimit:10;}
</style>
<g id="Layer_1" class="st0">
	<g class="st3">
		<rect x="3.6" y="13.5" class="st8" width="33.3" height="26.6"/>
		<rect x="1" y="9" class="st8" width="38.5" height="11"/>
		<rect x="16.8" y="8.4" class="st8" width="6.4" height="31.7"/>
		<ellipse transform="matrix(0.9668 -0.2554 0.2554 0.9668 -0.4005 7.7253)" class="st8" cx="29.5" cy="5.4" rx="9.5" ry="3.7"/>
		<ellipse transform="matrix(0.2554 -0.9668 0.9668 0.2554 2.4414 13.9797)" class="st8" cx="10.3" cy="5.4" rx="3.7" ry="9.5"/>
	</g>
</g>
<g id="Layer_2">
	<path class="st9" d="M39.5,8h-3.6c2.6-1.5,4.3-3.3,3.8-5.3c-2-5.4-16.7-1.8-19.8,2.9C16.8,0.9,2.1-2.7,0.1,2.7
		C-0.4,4.6,1.3,6.5,4,8H1C0.4,8,0,8.4,0,9v11c0,0.6,0.4,1,1,1h1.6v19.1c0,0.6,0.4,1,1,1h12.9c0.1,0,0.2,0.1,0.3,0.1h6.4
		c0.1,0,0.2,0,0.3-0.1h13.4c0.6,0,1-0.4,1-1V21h1.6c0.6,0,1-0.4,1-1V9C40.5,8.4,40,8,39.5,8z M15.8,39.1H4.6V21h11.2V39.1z
		 M15.8,12.5c0,1.3,0,5.1,0,6.5c-2,0-12,0-13.8,0v-9h7c2.4,0.6,4.6,0.9,6.8,0.7V12.5z M16.8,8.6C14.5,9,12,8.7,9.3,8
		C4.5,6.6,1.8,4.3,2,3.2c2.1-3.1,16.1,0.4,16.5,4.4c0,0,0,0,0,0C18.3,8.2,17.5,8.4,16.8,8.6z M22.2,12.5c0,5.8,0,20.7,0,26.7h-4.4
		c0-7.2,0-21.8,0-28.8c0.7-0.2,1.3-0.5,1.8-0.9h0.6c0.6,0.5,1.2,0.8,2,1V12.5z M23.2,8.6c-2.3-0.4-2.6-1.5-0.3-3.2
		C25.4,3.5,30.7,2,33.9,2C41.2,2.1,37.2,6,30.5,8C27.9,8.7,25.5,8.9,23.2,8.6z M35.9,39.1H24.2V21h11.7V39.1z M38.5,19
		c-1.7,0-12.4,0-14.3,0c0-2.3,0-6,0-8.3c2.2,0.2,4.3-0.1,6.6-0.7h7.7V19z"/>
</g>
</svg>
