<?xml version="1.0" encoding="utf-8"?>
<!-- Generator: Adobe Illustrator 25.2.1, SVG Export Plug-In . SVG Version: 6.00 Build 0)  -->
<svg version="1.1" xmlns="http://www.w3.org/2000/svg" xmlns:xlink="http://www.w3.org/1999/xlink" x="0px" y="0px"
	 viewBox="0 0 43.5 33.3" style="enable-background:new 0 0 43.5 33.3;" xml:space="preserve">
<style type="text/css">
	.st0{display:none;}
	.st1{display:inline;fill:none;stroke:#CE9124;stroke-width:2;stroke-miterlimit:10;}
	.st2{display:inline;fill:none;stroke:#CE9124;stroke-width:1.8;stroke-miterlimit:10;}
	.st3{display:inline;}
	.st4{fill:none;stroke:#CE9124;stroke-width:2;stroke-miterlimit:10;}
	.st5{fill:none;stroke:#CE9124;stroke-width:1.8;stroke-linecap:round;stroke-linejoin:round;stroke-miterlimit:10;}
	.st6{display:inline;fill:none;stroke:#CE9124;stroke-width:2;stroke-linecap:round;stroke-linejoin:round;stroke-miterlimit:10;}
	.st7{fill:none;stroke:#CE9124;stroke-width:2;stroke-linecap:round;stroke-linejoin:round;stroke-miterlimit:10;}
	.st8{fill:#FFFFFF;stroke:#CE9124;stroke-width:2;stroke-linecap:round;stroke-linejoin:round;stroke-miterlimit:10;}
	.st9{fill:#CE9124;}
	.st10{fill:#CE9124;stroke:#CE9124;stroke-width:2;stroke-linecap:round;stroke-linejoin:round;stroke-miterlimit:10;}
	.st11{fill:#FFFFFF;stroke:#CE9124;stroke-width:2;stroke-miterlimit:10;}
</style>
<g id="Layer_1" class="st0">
	<g class="st3">
		<polygon class="st7" points="42.5,16.1 42.5,25.7 24.9,25.7 24.9,8.8 37.3,8.8 		"/>
		<path class="st11" d="M23.3,25.7H3.2c-1.2,0-2.2-1-2.2-2.2V1.9C1,1.4,1.4,1,1.9,1h21.4c2.8,0.1,3.6,1.6,3.6,3.6L27,25.2
			C26.9,25.9,25.3,25.7,23.3,25.7z"/>
		<circle class="st11" cx="11.5" cy="28" r="4.5"/>
		<circle class="st11" cx="34.5" cy="28" r="4.5"/>
		<line class="st7" x1="34.8" y1="9.5" x2="34.8" y2="16.8"/>
		<line class="st7" x1="41.5" y1="16.9" x2="34.8" y2="16.9"/>
	</g>
</g>
<g id="Layer_2">
	<path class="st9" d="M38.1,8.3c0.2-0.8-9.8-0.3-10.2-0.4c0.2-3.5,0.2-7.9-4.6-7.8c0,0-21.4,0-21.4,0C0.8,0,0,0.8,0,1.9v21.7
		c0,3.4,3.8,3.3,6.3,3.2c-1.8,8.8,12.4,8.8,10.6,0c3.5,0,9,0,12.4,0c-1.8,8.8,12.4,8.8,10.6,0c0.9-0.2,3.7,0.6,3.7-1
		c0,0,0-9.6,0-9.6C44,16.1,38.1,8.4,38.1,8.3z M11.5,31.5c-4.5,0-4.5-6.9,0-6.9C16,24.6,16,31.5,11.5,31.5z M25.9,24.7
		c-1.7,0-8.2,0-10,0c-1.9-2.8-6.7-2.8-8.6,0c-1-0.3-5.3,0.8-5.2-1.2C2,23.6,2,2,2,2l21.3,0c2.2,0.1,2.6,1.1,2.6,2.6
		C25.9,8.2,25.9,20.9,25.9,24.7C25.9,24.7,25.9,24.7,25.9,24.7z M35.8,9.8h1l4.3,6l-5.3,0V9.8z M34.5,31.5c-4.5,0-4.5-6.9,0-6.9
		C39,24.5,39,31.5,34.5,31.5z M41.5,24.7h-2.7c-1.9-2.8-6.7-2.8-8.6,0H28l0-14.9h5.8c0.2,9.2-1.9,8.1,7.7,8V24.7z"/>
</g>
</svg>
