<?xml version="1.0" encoding="utf-8"?>
<!-- Generator: Adobe Illustrator 25.2.1, SVG Export Plug-In . SVG Version: 6.00 Build 0)  -->
<svg version="1.1" xmlns="http://www.w3.org/2000/svg" xmlns:xlink="http://www.w3.org/1999/xlink" x="0px" y="0px"
	 viewBox="0 0 30.5 26" style="enable-background:new 0 0 30.5 26;" xml:space="preserve">
<style type="text/css">
	.st0{display:none;}
	.st1{display:inline;fill:none;stroke:#CE9124;stroke-width:2;stroke-miterlimit:10;}
	.st2{display:inline;fill:none;stroke:#CE9124;stroke-width:1.8;stroke-miterlimit:10;}
	.st3{display:inline;}
	.st4{fill:none;stroke:#CE9124;stroke-width:2;stroke-miterlimit:10;}
	.st5{fill:none;stroke:#CE9124;stroke-width:1.8;stroke-linecap:round;stroke-linejoin:round;stroke-miterlimit:10;}
	.st6{display:inline;fill:none;stroke:#CE9124;stroke-width:2;stroke-linecap:round;stroke-linejoin:round;stroke-miterlimit:10;}
	.st7{fill:none;stroke:#CE9124;stroke-width:2;stroke-linecap:round;stroke-linejoin:round;stroke-miterlimit:10;}
	.st8{fill:#FFFFFF;stroke:#CE9124;stroke-width:2;stroke-linecap:round;stroke-linejoin:round;stroke-miterlimit:10;}
	.st9{fill:#CE9124;}
	.st10{fill:#CE9124;stroke:#CE9124;stroke-width:2;stroke-linecap:round;stroke-linejoin:round;stroke-miterlimit:10;}
	.st11{fill:#FFFFFF;stroke:#CE9124;stroke-width:2;stroke-miterlimit:10;}
</style>
<g id="Layer_1" class="st0">
	<path class="st6" d="M15.2,25c3.2-3.3,14.9-10.1,14.3-18.3C28.9-1.5,15.8-1,15.2,8.9h0.1C14.7-1,1.6-1.5,1,6.7
		C0.4,14.9,12.1,21.7,15.2,25L15.2,25z"/>
</g>
<g id="Layer_2">
	<path class="st9" d="M23.1,0c-3.1,0-6.3,1.7-7.9,4.9C11.9-2.2,0.6-1.5,0,6.7C-0.4,15,9.1,20.7,14.4,25.5c0.4,0.7,1.5,0.6,1.8-0.1
		C21.5,20.7,30.9,15,30.5,6.7C30.2,2.7,27.2,0,23.1,0z M17.9,21.4c-1,0.8-1.9,1.5-2.6,2.2c-0.7-0.6-1.6-1.4-2.6-2.2
		C8.2,17.9,1.6,12.6,2,6.8C2.3,3.3,5.1,2,7.4,2c3,0,6.4,2,6.9,6.4c-0.4,1.9,2.5,2,2,0C16.8,4,20.1,2,23.1,2c2.3,0,5.1,1.3,5.4,4.8
		C28.9,12.6,22.3,17.9,17.9,21.4z"/>
</g>
</svg>
