<?xml version="1.0" encoding="utf-8"?>
<!-- Generator: Adobe Illustrator 25.2.1, SVG Export Plug-In . SVG Version: 6.00 Build 0)  -->
<svg version="1.1" xmlns="http://www.w3.org/2000/svg" xmlns:xlink="http://www.w3.org/1999/xlink" x="0px" y="0px"
	 viewBox="0 0 30.6 28.6" style="enable-background:new 0 0 30.6 28.6;" xml:space="preserve">
<style type="text/css">
	.st0{display:none;}
	.st1{display:inline;fill:none;stroke:#CE9124;stroke-width:2;stroke-miterlimit:10;}
	.st2{display:inline;fill:none;stroke:#CE9124;stroke-width:1.8;stroke-miterlimit:10;}
	.st3{display:inline;}
	.st4{fill:none;stroke:#CE9124;stroke-width:2;stroke-miterlimit:10;}
	.st5{fill:none;stroke:#CE9124;stroke-width:1.8;stroke-linecap:round;stroke-linejoin:round;stroke-miterlimit:10;}
	.st6{display:inline;fill:none;stroke:#CE9124;stroke-width:2;stroke-linecap:round;stroke-linejoin:round;stroke-miterlimit:10;}
	.st7{fill:none;stroke:#CE9124;stroke-width:2;stroke-linecap:round;stroke-linejoin:round;stroke-miterlimit:10;}
	.st8{fill:#FFFFFF;stroke:#CE9124;stroke-width:2;stroke-linecap:round;stroke-linejoin:round;stroke-miterlimit:10;}
	.st9{fill:#CE9124;}
	.st10{fill:#CE9124;stroke:#CE9124;stroke-width:2;stroke-linecap:round;stroke-linejoin:round;stroke-miterlimit:10;}
	.st11{fill:#FFFFFF;stroke:#CE9124;stroke-width:2;stroke-miterlimit:10;}
</style>
<g id="Layer_1" class="st0">
	<circle class="st2" cx="11.4" cy="25.5" r="2.1"/>
	<circle class="st2" cx="27.5" cy="25.7" r="2.1"/>
	<g class="st3">
		<g>
			<path class="st5" d="M26.9,21.3c-0.4,0-0.9,0-1.3,0c-17.2,0.1-15.4,1.2-16.3-4.1L7.5,5.3C7,1.8,7.9,0.5,0.9,1"/>
		</g>
	</g>
	<g class="st3">
		<g>
			<path class="st9" d="M28.5,7.2l-2.7,9.6l-15.5-0.1L8.7,7.2H28.5 M29.4,5.4H7.9c-0.7,0-1.2,0.5-1.2,1.2l1.9,11
				c0.1,0.5,0.6,0.9,1.2,0.9l16.5,0.1c0,0,0,0,0,0c0.6,0,1.1-0.4,1.2-0.9l3.1-11.1C30.7,5.9,30.1,5.4,29.4,5.4L29.4,5.4z"/>
		</g>
	</g>
</g>
<g id="Layer_2">
	<path class="st9" d="M8.4,25.5c0.1,4,5.9,4,6,0C14.3,21.6,8.5,21.6,8.4,25.5z M12.6,25.5c0,1.6-2.4,1.6-2.4,0
		C10.2,23.9,12.6,23.9,12.6,25.5z M24.5,25.7c0.1,4,5.9,4,6,0C30.4,21.7,24.6,21.7,24.5,25.7z M28.7,25.7c0,1.6-2.4,1.6-2.4,0
		C26.3,24.1,28.7,24.1,28.7,25.7z M6.5,4.1c0.1,0.6,0.2,1.5,0.3,2.2c0,0.1,0,0.1,0,0.2L7,8l1.4,9.4c0.5,3.9,0.5,5.1,6.2,5
		c3.8,0,7.7-0.2,12.3-0.1c1.2,0,1.2-1.8,0-1.8c0,0-1.3,0-1.3,0c-4.6-0.1-11.7,0.5-14.4-0.1c-0.5-0.2-0.6-0.3-0.8-1.9l15.9,0.1
		c0.6,0,1.1-0.4,1.2-0.9l3.1-11.1c0.1-0.6-0.5-1.1-1.2-1.1h-21C8,1.1,7.9-0.5,0.8,0.1C0.3,0.2,0,0.6,0,1.1c0,0.5,0.5,0.9,1,0.8
		C6.2,1.5,6.2,1.9,6.5,4.1z M28.5,7.2l-2.7,9.6l-15.5-0.1l-1.5-9L8.7,7.2H28.5z"/>
</g>
</svg>
