<?xml version="1.0" encoding="utf-8"?>
<!-- Generator: Adobe Illustrator 25.2.1, SVG Export Plug-In . SVG Version: 6.00 Build 0)  -->
<svg version="1.1" xmlns="http://www.w3.org/2000/svg" xmlns:xlink="http://www.w3.org/1999/xlink" x="0px" y="0px"
	 viewBox="0 0 27.2 24.9" style="enable-background:new 0 0 27.2 24.9;" xml:space="preserve">
<style type="text/css">
	.st0{display:none;}
	.st1{display:inline;fill:none;stroke:#CE9124;stroke-width:2;stroke-miterlimit:10;}
	.st2{display:inline;fill:none;stroke:#CE9124;stroke-width:1.8;stroke-miterlimit:10;}
	.st3{display:inline;}
	.st4{fill:none;stroke:#CE9124;stroke-width:2;stroke-miterlimit:10;}
	.st5{fill:none;stroke:#CE9124;stroke-width:1.8;stroke-linecap:round;stroke-linejoin:round;stroke-miterlimit:10;}
	.st6{display:inline;fill:none;stroke:#CE9124;stroke-width:2;stroke-linecap:round;stroke-linejoin:round;stroke-miterlimit:10;}
	.st7{fill:none;stroke:#CE9124;stroke-width:2;stroke-linecap:round;stroke-linejoin:round;stroke-miterlimit:10;}
	.st8{fill:#FFFFFF;stroke:#CE9124;stroke-width:2;stroke-linecap:round;stroke-linejoin:round;stroke-miterlimit:10;}
	.st9{fill:#CE9124;}
	.st10{fill:#CE9124;stroke:#CE9124;stroke-width:2;stroke-linecap:round;stroke-linejoin:round;stroke-miterlimit:10;}
	.st11{fill:#FFFFFF;stroke:#CE9124;stroke-width:2;stroke-miterlimit:10;}
</style>
<g id="Layer_1" class="st0">
	<circle class="st1" cx="13.6" cy="7.6" r="6.6"/>
	<g class="st3">
		<g>
			<path class="st4" d="M1,24.9c0-5.5,6.9-6.8,12.8-7"/>
			<path class="st4" d="M26.2,24.9c0-5.5-6.9-6.8-12.8-7"/>
		</g>
	</g>
</g>
<g id="Layer_2">
	<path class="st9" d="M13.6,15.2c4.2,0,7.6-3.4,7.6-7.6C20.9-2.5,6.3-2.5,6,7.6C6,11.8,9.4,15.2,13.6,15.2z M13.6,1.9
		c7.4,0.2,7.4,11,0,11.2C6.2,12.9,6.2,2.2,13.6,1.9z M27.2,24.9h-2c0-4.6-6.2-5.8-11.6-5.9C8.2,19.2,2,20.4,2,24.9H0
		c0-3.4,2.4-7.5,13.4-7.9l0,0c0.1,0,0.1,0,0.2,0c0.1,0,0.1,0,0.2,0l0,0C24.9,17.4,27.2,21.5,27.2,24.9z"/>
</g>
</svg>
