<?xml version="1.0" encoding="utf-8"?>
<!-- Generator: Adobe Illustrator 25.2.1, SVG Export Plug-In . SVG Version: 6.00 Build 0)  -->
<svg version="1.1" xmlns="http://www.w3.org/2000/svg" xmlns:xlink="http://www.w3.org/1999/xlink" x="0px" y="0px"
	 viewBox="0 0 33.4 27.4" style="enable-background:new 0 0 33.4 27.4;" xml:space="preserve">
<style type="text/css">
	.st0{display:none;}
	.st1{display:inline;fill:none;stroke:#CE9124;stroke-width:2;stroke-miterlimit:10;}
	.st2{display:inline;fill:none;stroke:#CE9124;stroke-width:1.8;stroke-miterlimit:10;}
	.st3{display:inline;}
	.st4{fill:none;stroke:#CE9124;stroke-width:2;stroke-miterlimit:10;}
	.st5{fill:none;stroke:#CE9124;stroke-width:1.8;stroke-linecap:round;stroke-linejoin:round;stroke-miterlimit:10;}
	.st6{display:inline;fill:none;stroke:#CE9124;stroke-width:2;stroke-linecap:round;stroke-linejoin:round;stroke-miterlimit:10;}
	.st7{fill:none;stroke:#CE9124;stroke-width:2;stroke-linecap:round;stroke-linejoin:round;stroke-miterlimit:10;}
	.st8{fill:#FFFFFF;stroke:#CE9124;stroke-width:2;stroke-linecap:round;stroke-linejoin:round;stroke-miterlimit:10;}
	.st9{fill:#CE9124;}
	.st10{fill:#CE9124;stroke:#CE9124;stroke-width:2;stroke-linecap:round;stroke-linejoin:round;stroke-miterlimit:10;}
	.st11{fill:#FFFFFF;stroke:#CE9124;stroke-width:2;stroke-miterlimit:10;}
</style>
<g id="Layer_1" class="st0">
	<g class="st3">
		<g>
			<path class="st7" d="M28.7,26.2l-17-11.7l3.3-4.7l17,11.7c0.5,0.4,0.6,1.1,0.3,1.6l-2,2.9C29.9,26.4,29.2,26.5,28.7,26.2z"/>
			<circle class="st8" cx="10.7" cy="10.7" r="9.7"/>
		</g>
	</g>
</g>
<g id="Layer_2">
	<path class="st9" d="M28.1,27C28.1,27,28.1,27,28.1,27c0.9,0.7,2.3,0.4,3-0.5c0,0,2-2.9,2-2.9c0.7-0.9,0.4-2.3-0.5-3
		c0,0-11.3-7.8-11.3-7.8C23.5,1.5,8.6-4.9,1.9,4.6C-4.8,14.6,7.3,26.3,17,19.3L28.1,27z M20.6,14.8l10.8,7.4c0.1,0,0.1,0.1,0,0.2
		l-2,2.9c0,0.1-0.1,0.1-0.2,0h0L18.6,18C19.4,17.1,20.1,16,20.6,14.8z M15.3,18.1c-4.9,3.2-12.2,0-13.1-5.9
		C0.7,4.8,9.5-0.9,15.7,3.5C20.8,6.8,20.6,15.1,15.3,18.1z"/>
</g>
</svg>
